<?xml version="1.0" encoding="utf-8"?>
<!-- Generator: Adobe Illustrator 25.0.0, SVG Export Plug-In . SVG Version: 6.00 Build 0)  -->
<svg version="1.1" id="Camada_2" xmlns="http://www.w3.org/2000/svg" xmlns:xlink="http://www.w3.org/1999/xlink" x="0px" y="0px"
	 viewBox="0 0 1920 1080" style="enable-background:new 0 0 1920 1080;" xml:space="preserve">
<style type="text/css">
	.st0{fill:#FFFFFF;}
	.st1{fill:none;}
	.st2{fill:#FFFFFF;stroke:#FFFFFF;}
</style>
<g>
	<path class="st0" d="M1447.13,668.36c-0.85-7.42-1.98-14.89-3.25-22.29c-1.29-7.41-2.64-14.81-4.2-22.17
		c-3.1-14.72-6.64-29.34-10.66-43.82c-8.05-28.96-18.08-57.35-30.13-84.82c-12.07-27.45-26.21-53.97-42.6-78.97
		c-16.41-24.98-35.06-48.45-55.98-69.62c-20.87-21.22-44.04-40.07-68.95-56.14c-24.93-16.04-51.6-29.3-79.42-39.49
		c-13.91-5.08-28.07-9.48-42.43-13.15s-28.91-6.63-43.57-8.93c-14.66-2.3-29.42-4.07-44.25-5.14c-14.83-1.06-29.71-1.52-44.6-1.52
		c-29.79,0.05-59.58,2.03-88.92,6.69c-29.35,4.57-58.24,11.87-86.11,21.92c-27.86,10.07-54.64,23.11-79.58,39.09
		c-24.94,15.97-48.06,34.8-68.9,55.94c-20.86,21.14-39.33,44.66-55.54,69.67c-16.23,25.01-30.1,51.61-41.8,79.15
		c-11.79,27.52-21.35,56.02-29,85.05c-3.83,14.52-7.13,29.18-9.9,43.95c-1.4,7.38-2.66,14.79-3.76,22.23
		c-1.08,7.42-2.05,14.92-2.66,22.33l-3.67-0.18c1.55-30.41,6.38-60.39,13.04-90.03c6.72-29.61,15.67-58.76,26.81-87.1
		c11.21-28.31,24.75-55.78,40.79-81.81c7.99-13.03,16.69-25.64,26.01-37.8c9.31-12.17,19.27-23.85,29.85-34.97
		c10.55-11.14,21.79-21.65,33.54-31.56c11.8-9.85,24.17-19.03,37.03-27.46c25.72-16.88,53.41-30.75,82.21-41.53
		c14.41-5.38,29.1-9.97,43.97-13.8c14.86-3.87,29.91-6.98,45.05-9.44c15.14-2.48,30.37-4.27,45.64-5.46
		c15.27-1.19,30.57-1.81,45.86-1.89c15.3,0.02,30.61,0.52,45.89,1.63c15.28,1.14,30.53,2.93,45.68,5.41
		c30.27,5.03,60.2,12.72,88.93,23.77c28.72,11.01,56.26,25.2,81.72,42.43c12.73,8.6,25,17.89,36.66,27.86
		c11.68,9.95,22.72,20.62,33.21,31.78c20.98,22.31,39.46,46.84,55.57,72.72c16.13,25.88,29.87,53.15,41.47,81.24
		c11.57,28.11,21.07,57.01,28.49,86.42c3.71,14.7,6.96,29.52,9.55,44.45c1.31,7.46,2.49,14.95,3.46,22.46
		c0.96,7.52,1.84,15.03,2.31,22.64L1447.13,668.36z"/>
</g>
<g>
	<path class="st0" d="M505.7,667.86c37.25-0.72,74.5-1.33,111.74-1.79l55.87-0.68l55.87-0.55L840.92,664l111.74-0.5l55.87-0.13
		l55.87-0.06l55.87-0.05l55.87,0.2c74.5,0.52,148.99,1.63,223.49,4.69v0.19c-74.5,3.07-148.99,4.18-223.49,4.69l-55.87,0.2
		l-55.87-0.05l-55.87-0.06l-55.87-0.13l-111.74-0.5l-111.74-0.84l-55.87-0.55l-55.87-0.68c-37.25-0.45-74.5-1.07-111.74-1.79V667.86
		z"/>
</g>
<g>
	<path class="st0" d="M397.69,752.61c47.89-0.96,95.78-1.79,143.67-2.4l71.83-0.92l71.83-0.74c23.94-0.27,47.89-0.45,71.83-0.61
		l71.83-0.53l143.67-0.69l35.92-0.15l35.92-0.05l71.83-0.09l71.83-0.09c23.94,0.02,47.89,0.05,71.83,0.21
		c95.78,0.64,191.56,2.16,287.34,6.43v1.7c-95.78,4.27-191.56,5.79-287.34,6.43c-23.94,0.16-47.89,0.19-71.83,0.21l-71.83-0.09
		l-71.83-0.09l-35.92-0.05l-35.92-0.15l-143.67-0.69l-71.83-0.53c-23.94-0.17-47.89-0.34-71.83-0.61l-71.83-0.74l-71.83-0.92
		c-47.89-0.62-95.78-1.44-143.67-2.4V752.61z"/>
</g>
<g>
	<g>
		<path class="st0" d="M975.34,213.8c-0.8-5.43-1.22-10.87-1.52-16.3c-0.33-5.43-0.45-10.87-0.49-16.3
			c-0.02-5.43,0.06-10.87,0.38-16.3c0.29-5.43,0.75-10.87,1.63-16.3h6.96c0.88,5.43,1.34,10.87,1.63,16.3
			c0.32,5.43,0.4,10.87,0.38,16.3c-0.03,5.43-0.16,10.87-0.49,16.3c-0.31,5.43-0.73,10.87-1.52,16.3H975.34z"/>
	</g>
</g>
<g>
	<path class="st0" d="M906.45,152.38c-0.76-0.61-1.43-1.68-1.65-2.67c-0.1-0.47-0.03-0.18-0.05-0.3l0-0.16l0-0.3l0-0.59l-0.02-1.16
		c-0.04-0.76-0.04-1.52-0.08-2.28c-0.07-1.51-0.14-3-0.24-4.49c-0.2-2.98-0.45-5.93-0.72-8.9c-0.48-5.94-0.58-11.92-0.32-17.93
		c0.23-6.02,0.95-12.06,2.16-18.09c1.24-6.02,3.09-12.03,5.78-17.8c2.68-5.77,6.28-11.27,10.74-16.11c2.22-2.43,4.69-4.64,7.32-6.64
		c2.62-2.02,5.42-3.81,8.33-5.35c5.81-3.14,12.06-5.21,18.32-6.58c1.57-0.3,3.14-0.64,4.72-0.85l2.36-0.35l2.36-0.26
		c3.15-0.33,6.28-0.46,9.4-0.51c6.26-0.08,12.65,0.48,18.98,1.78c6.32,1.33,12.61,3.47,18.43,6.65c5.82,3.15,11.17,7.28,15.63,12.11
		c4.45,4.85,8.07,10.3,10.87,16.01c5.57,11.47,8.14,23.66,9.25,35.64c0.55,6.01,0.76,12,0.61,17.98l-0.31,8.95l-0.14,4.5l-0.11,4.65
		l0,0l-0.61,4.36l-4.42,0C997.44,153.64,951.68,153.1,906.45,152.38z M912.61,144.81c43.76-0.73,86.98-1.27,130.4-1.31l-5.04,4.35
		l0,0c0.36-1.18,0.62-2.64,0.83-3.99c0.21-1.38,0.35-2.78,0.47-4.18c0.19-2.8,0.25-5.62,0.13-8.43c-0.21-5.62-0.69-11.22-1.61-16.71
		c-0.95-5.48-2.21-10.88-4.01-16.03c-1.79-5.14-4.03-10.05-6.77-14.53c-2.76-4.46-6-8.49-9.71-11.89c-3.75-3.34-7.84-6.2-12.39-8.24
		c-9.02-4.22-19.35-5.86-29.98-5.82c-2.67,0.01-5.34,0.08-7.96,0.32l-1.97,0.15l-1.95,0.23c-1.31,0.13-2.57,0.38-3.86,0.57
		c-2.54,0.45-5.06,0.99-7.49,1.73c-1.24,0.32-2.41,0.77-3.62,1.16c-1.16,0.47-2.36,0.89-3.49,1.41c-4.63,1.96-8.8,4.73-12.61,8.02
		c-3.75,3.34-7.05,7.33-9.75,11.83c-2.7,4.5-4.86,9.45-6.52,14.65c-1.66,5.21-2.72,10.66-3.44,16.2c-0.68,5.54-0.9,11.18-0.82,16.82
		c0.03,2.82,0.23,5.64,0.66,8.43c0.22,1.39,0.51,2.77,0.86,4.14c0.17,0.68,0.38,1.35,0.59,2.02l0.35,0.98l0.19,0.48l0.1,0.23
		l0.05,0.11c-0.01-0.08,0.07,0.26-0.02-0.17C914.03,146.4,913.36,145.38,912.61,144.81z"/>
</g>
<g>
	<rect x="6.76" y="839.43" class="st1" width="1944.13" height="179.33"/>
	<path class="st2" d="M160.52,928.84c0,12.74-2.39,23.78-7.18,33.14c-4.79,9.36-11.01,17.03-18.68,23.01
		c-7.74,5.98-16.43,10.45-26.07,13.4c-9.64,2.96-19.59,4.43-29.87,4.43H16.68v-7.49c2.04,0,4.7-0.19,7.97-0.58
		c3.27-0.39,5.43-0.83,6.49-1.32c2.11-0.91,3.64-2.27,4.59-4.06s1.42-3.96,1.42-6.49V874.81c0-2.39-0.41-4.54-1.21-6.44
		c-0.81-1.9-2.41-3.41-4.8-4.54c-2.18-1.05-4.54-1.83-7.07-2.32c-2.53-0.49-4.71-0.81-6.54-0.95v-7.49h65.43
		c9,0,17.87,1.39,26.59,4.17c8.72,2.78,16.32,6.53,22.79,11.24c8.79,6.26,15.69,14.46,20.68,24.59
		C158.02,903.2,160.52,915.12,160.52,928.84z M134.66,928.79c0-10.05-1.34-19.14-4.01-27.26c-2.67-8.12-6.58-15.2-11.71-21.25
		c-4.85-5.76-10.82-10.3-17.89-13.6c-7.07-3.3-14.93-4.96-23.59-4.96c-2.89,0-6.14,0.05-9.76,0.16c-3.62,0.11-6.31,0.19-8.07,0.26
		v115.04c0,6.4,1.86,10.83,5.59,13.29c3.73,2.46,9.46,3.69,17.2,3.69c8.93,0,16.74-1.58,23.43-4.74c6.68-3.16,12.1-7.56,16.25-13.18
		c4.36-5.9,7.55-12.74,9.55-20.51C133.66,947.96,134.66,938.98,134.66,928.79z"/>
	<path class="st2" d="M304.88,958.71l-2.85,44.11H177.72v-7.49c2.11-0.14,4.92-0.44,8.44-0.9c3.52-0.46,5.8-0.93,6.86-1.42
		c2.25-1.06,3.82-2.43,4.7-4.12c0.88-1.69,1.32-3.83,1.32-6.44V874.81c0-2.32-0.39-4.38-1.16-6.17c-0.77-1.79-2.39-3.25-4.85-4.38
		c-1.9-0.91-4.45-1.72-7.65-2.43c-3.2-0.7-5.75-1.12-7.65-1.27v-7.49h115.87v36.09h-7.92c-1.41-5.35-4.45-11.03-9.13-17.04
		c-4.68-6.01-9.13-9.3-13.35-9.87c-2.18-0.28-4.79-0.49-7.81-0.63c-3.03-0.14-6.47-0.21-10.34-0.21h-23.53v59.52h16.88
		c5.42,0,9.37-0.51,11.87-1.53c2.5-1.02,4.7-2.73,6.6-5.12c1.55-2.04,2.87-4.77,3.96-8.18c1.09-3.41,1.81-6.63,2.16-9.66h7.91v58.67
		h-7.91c-0.28-3.38-1.04-6.95-2.27-10.71c-1.23-3.76-2.52-6.49-3.85-8.18c-2.18-2.74-4.66-4.54-7.44-5.38
		c-2.78-0.84-6.46-1.27-11.03-1.27h-16.88v44.88c0,4.5,0.32,8.04,0.95,10.64c0.63,2.6,1.86,4.57,3.69,5.9
		c1.83,1.34,4.33,2.2,7.49,2.58c3.17,0.39,7.67,0.58,13.51,0.58c2.32,0,5.38,0,9.18,0c3.8,0,7-0.14,9.6-0.42
		c2.67-0.28,5.44-0.79,8.28-1.53c2.85-0.74,4.87-1.74,6.07-3.01c3.23-3.38,6.63-8.5,10.18-15.35c3.55-6.86,5.82-11.91,6.81-15.14
		H304.88z"/>
	<path class="st2" d="M440.38,958.29l-3.17,44.53H320.18v-7.49c1.69-0.14,4.13-0.39,7.33-0.74c3.2-0.35,5.44-0.81,6.7-1.37
		c2.11-0.91,3.64-2.25,4.59-4.01c0.95-1.76,1.42-4.01,1.42-6.75V875.23c0-2.39-0.41-4.5-1.21-6.33c-0.81-1.83-2.41-3.31-4.8-4.43
		c-1.62-0.84-3.89-1.67-6.81-2.48c-2.92-0.81-5.33-1.28-7.23-1.42v-7.49h63.21v7.49c-1.97,0.07-4.52,0.42-7.65,1.06
		c-3.13,0.63-5.4,1.2-6.81,1.69c-2.39,0.84-4.03,2.29-4.91,4.33c-0.88,2.04-1.32,4.22-1.32,6.54v100.57c0,4.64,0.23,8.25,0.69,10.82
		c0.46,2.57,1.53,4.56,3.22,5.96c1.62,1.27,4.03,2.09,7.23,2.48c3.2,0.39,7.69,0.58,13.46,0.58c2.6,0,5.31-0.07,8.13-0.21
		c2.81-0.14,5.49-0.42,8.02-0.84c2.46-0.42,4.73-1,6.81-1.74c2.07-0.74,3.6-1.67,4.59-2.8c2.88-3.24,6.24-8.14,10.08-14.72
		c3.83-6.58,6.49-11.91,7.97-15.99H440.38z"/>
	<path class="st2" d="M516.05,1002.82h-67.43v-7.49c1.9-0.14,4.64-0.35,8.23-0.63c3.59-0.28,6.12-0.7,7.6-1.27
		c2.32-0.91,4.01-2.16,5.07-3.75s1.58-3.78,1.58-6.6V874.6c0-2.46-0.39-4.52-1.16-6.17c-0.77-1.65-2.6-3.04-5.49-4.17
		c-2.11-0.84-4.77-1.64-7.97-2.38c-3.2-0.74-5.82-1.18-7.86-1.32v-7.49h67.43v7.49c-2.18,0.07-4.79,0.33-7.81,0.79
		c-3.03,0.46-5.66,1.04-7.92,1.74c-2.67,0.84-4.47,2.22-5.38,4.12c-0.92,1.9-1.37,4.01-1.37,6.33v108.38c0,2.32,0.51,4.38,1.53,6.17
		c1.02,1.79,2.76,3.22,5.22,4.27c1.48,0.56,3.89,1.18,7.23,1.85c3.34,0.67,6.17,1.04,8.5,1.11V1002.82z"/>
	<path class="st2" d="M600.73,1006.41c-8.93,0-17.49-1.76-25.68-5.28c-8.19-3.52-15.45-8.59-21.77-15.21
		c-6.26-6.62-11.25-14.7-14.97-24.24c-3.73-9.54-5.59-20.29-5.59-32.26c0-11.97,1.83-22.83,5.48-32.58
		c3.65-9.75,8.71-18.14,15.18-25.19c6.4-6.97,13.95-12.35,22.67-16.16c8.72-3.8,18.03-5.7,27.94-5.7c7.38,0,14.06,0.92,20.03,2.74
		c5.97,1.83,11.67,4.4,17.08,7.7l4.32-7.18h8.44l0.95,53.4h-8.65c-1.12-5.21-2.81-10.85-5.06-16.94
		c-2.25-6.08-4.88-11.24-7.91-15.46c-3.37-4.78-7.38-8.53-12.02-11.24c-4.64-2.71-9.94-4.06-15.92-4.06
		c-6.82,0-13.16,1.51-19.03,4.54c-5.87,3.03-10.94,7.5-15.23,13.41c-4.08,5.71-7.28,12.96-9.59,21.76
		c-2.32,8.8-3.48,18.62-3.48,29.47c0,9.58,1.21,18.36,3.64,26.35c2.42,7.99,5.89,15.01,10.38,21.07c4.5,5.99,9.82,10.67,15.97,14.05
		c6.15,3.38,13.02,5.07,20.61,5.07c5.69,0,10.93-0.9,15.71-2.69c4.78-1.79,8.92-4.17,12.44-7.12c3.51-3.09,6.6-6.61,9.28-10.55
		c2.67-3.94,4.85-8.23,6.54-12.88l7.92,3.8c-6.04,14.85-14.06,25.45-24.04,31.82C626.39,1003.22,614.51,1006.41,600.73,1006.41z"/>
	<path class="st2" d="M739.03,1002.82H671.6v-7.49c1.9-0.14,4.64-0.35,8.23-0.63c3.59-0.28,6.12-0.7,7.6-1.27
		c2.32-0.91,4.01-2.16,5.07-3.75s1.58-3.78,1.58-6.6V874.6c0-2.46-0.39-4.52-1.16-6.17c-0.77-1.65-2.6-3.04-5.49-4.17
		c-2.11-0.84-4.77-1.64-7.97-2.38c-3.2-0.74-5.82-1.18-7.86-1.32v-7.49h67.43v7.49c-2.18,0.07-4.79,0.33-7.81,0.79
		c-3.03,0.46-5.66,1.04-7.92,1.74c-2.67,0.84-4.47,2.22-5.38,4.12c-0.92,1.9-1.37,4.01-1.37,6.33v108.38c0,2.32,0.51,4.38,1.53,6.17
		c1.02,1.79,2.76,3.22,5.22,4.27c1.48,0.56,3.89,1.18,7.23,1.85c3.34,0.67,6.17,1.04,8.5,1.11V1002.82z"/>
	<path class="st2" d="M897.44,1002.82h-62.25v-7.49c5.49-0.35,10.04-1.05,13.66-2.11c3.62-1.05,5.43-2.36,5.43-3.9
		c0-0.63-0.07-1.41-0.21-2.32c-0.14-0.91-0.35-1.72-0.63-2.43L841.04,951h-52.57c-1.97,4.92-3.57,9.22-4.81,12.88
		s-2.34,7.04-3.33,10.13c-0.92,3.03-1.55,5.49-1.9,7.39c-0.35,1.9-0.53,3.45-0.53,4.64c0,2.81,2.22,5,6.65,6.54
		c4.43,1.55,9.43,2.46,14.99,2.74v7.49h-56.4v-7.49c1.83-0.14,4.12-0.54,6.86-1.21c2.74-0.67,4.99-1.57,6.75-2.69
		c2.81-1.9,4.99-3.89,6.54-5.96c1.55-2.08,3.06-4.94,4.54-8.6c7.53-18.78,15.83-39.89,24.91-63.32
		c9.08-23.43,17.17-44.29,24.27-62.58h8.44l49.92,129.17c1.06,2.74,2.25,4.96,3.59,6.65c1.34,1.69,3.2,3.34,5.59,4.96
		c1.62,0.99,3.73,1.81,6.33,2.48c2.6,0.67,4.78,1.04,6.54,1.11V1002.82z M837.19,941.61l-22.68-58.11l-22.36,58.11H837.19z"/>
	<path class="st2" d="M996,934.12c3.17,3.52,5.51,7.37,7.02,11.56c1.51,4.19,2.27,9.06,2.27,14.62c0,13.23-4.89,24.13-14.67,32.71
		c-9.78,8.58-21.92,12.88-36.41,12.88c-6.69,0-13.37-1.04-20.05-3.11c-6.69-2.07-12.45-4.59-17.31-7.55l-4.54,7.7h-8.44l-1.48-51.29
		h8.55c1.76,6.33,3.82,12.05,6.17,17.15c2.36,5.1,5.47,9.87,9.34,14.3c3.66,4.15,7.93,7.46,12.82,9.92
		c4.89,2.46,10.57,3.69,17.04,3.69c4.86,0,9.09-0.63,12.72-1.9c3.62-1.27,6.56-3.06,8.81-5.39c2.25-2.33,3.92-5.05,5.01-8.19
		c1.09-3.13,1.64-6.75,1.64-10.83c0-5.99-1.69-11.57-5.07-16.75s-8.41-9.11-15.09-11.78c-4.57-1.82-9.81-3.83-15.73-6.04
		c-5.91-2.21-11.01-4.29-15.3-6.25c-8.44-3.8-15-8.77-19.68-14.93c-4.68-6.15-7.02-14.19-7.02-24.11c0-5.7,1.16-11.01,3.48-15.93
		s5.63-9.32,9.92-13.19c4.08-3.66,8.9-6.52,14.46-8.6c5.56-2.07,11.36-3.11,17.41-3.11c6.89,0,13.07,1.05,18.52,3.17
		c5.45,2.11,10.43,4.57,14.93,7.39l4.33-7.18h8.44l0.84,49.71h-8.55c-1.55-5.7-3.29-11.15-5.22-16.36
		c-1.94-5.21-4.45-9.92-7.54-14.14c-3.03-4.08-6.72-7.33-11.08-9.76c-4.36-2.43-9.71-3.64-16.04-3.64c-6.69,0-12.38,2.15-17.1,6.44
		c-4.71,4.29-7.07,9.53-7.07,15.72c0,6.47,1.51,11.84,4.54,16.09c3.02,4.26,7.42,7.76,13.19,10.5c5.13,2.46,10.18,4.59,15.14,6.38
		c4.96,1.79,9.76,3.71,14.41,5.75c4.22,1.83,8.28,3.9,12.19,6.23C989.72,928.31,993.12,931.02,996,934.12z"/>
	<path class="st2" d="M1197.14,870.8c6.61,6.9,11.78,15.21,15.51,24.96c3.73,9.74,5.59,20.53,5.59,32.34c0,11.89-1.9,22.69-5.7,32.4
		c-3.8,9.71-9.08,17.98-15.83,24.8c-6.54,6.75-14.14,11.96-22.79,15.62s-17.87,5.49-27.65,5.49c-10.41,0-20.03-1.95-28.86-5.86
		c-8.83-3.91-16.41-9.34-22.74-16.3c-6.33-6.82-11.31-15.11-14.93-24.85c-3.62-9.74-5.43-20.17-5.43-31.29
		c0-12.17,1.9-23.02,5.7-32.56c3.8-9.53,9.04-17.78,15.72-24.75c6.61-6.89,14.3-12.17,23.06-15.83c8.76-3.66,17.92-5.49,27.49-5.49
		c9.92,0,19.28,1.86,28.07,5.59C1183.14,858.81,1190.74,864.05,1197.14,870.8z M1181.42,976.96c3.94-6.4,6.81-13.65,8.6-21.74
		c1.79-8.09,2.69-17.13,2.69-27.12c0-10.27-1-19.7-3.01-28.28c-2.01-8.58-4.94-15.9-8.81-21.95c-3.87-5.98-8.72-10.64-14.56-13.98
		c-5.84-3.34-12.52-5.01-20.05-5.01c-8.44,0-15.62,1.94-21.53,5.8c-5.91,3.87-10.73,9.04-14.46,15.51
		c-3.52,6.19-6.14,13.44-7.86,21.74c-1.72,8.3-2.59,17.03-2.59,26.17c0,10.13,0.91,19.28,2.74,27.44
		c1.83,8.16,4.71,15.41,8.65,21.74c3.8,6.19,8.58,11.03,14.35,14.51c5.77,3.48,12.66,5.22,20.68,5.22c7.53,0,14.32-1.76,20.37-5.28
		C1172.7,988.22,1177.62,983.3,1181.42,976.96z"/>
	<path class="st2" d="M1390.69,860.56c-1.97,0.07-5,0.63-9.08,1.69c-4.08,1.06-7,2.15-8.76,3.27c-2.53,1.76-4.24,5.14-5.12,10.13
		c-0.88,5-1.32,11.33-1.32,19v109.65h-9.18l-90.76-122.52v77.25c0,8.65,0.54,15.3,1.64,19.95c1.09,4.64,2.76,7.95,5.01,9.92
		c1.62,1.55,4.96,2.99,10.03,4.33c5.07,1.34,8.41,2.04,10.03,2.11v7.49h-61.42v-7.49c1.9-0.14,5.1-0.83,9.6-2.06
		c4.5-1.23,7.32-2.34,8.44-3.32c2.46-1.97,4.15-4.98,5.07-9.02c0.91-4.04,1.37-10.96,1.37-20.74v-73.77c0-3.24-0.56-6.47-1.69-9.71
		c-1.13-3.24-2.64-5.73-4.54-7.49c-2.53-2.32-5.96-4.31-10.29-5.96c-4.33-1.65-7.83-2.55-10.5-2.69v-7.49h42.78l84.17,114.16v-71.22
		c0-8.72-0.56-15.42-1.69-20.1c-1.13-4.68-2.74-7.79-4.85-9.34c-1.97-1.33-5.19-2.64-9.66-3.9c-4.47-1.27-7.86-1.97-10.18-2.11
		v-7.49h60.89V860.56z"/>
	<path class="st2" d="M1523.02,958.29l-3.17,44.53h-117.03v-7.49c1.69-0.14,4.13-0.39,7.33-0.74c3.2-0.35,5.43-0.81,6.7-1.37
		c2.11-0.91,3.64-2.25,4.59-4.01c0.95-1.76,1.42-4.01,1.42-6.75V875.23c0-2.39-0.41-4.5-1.21-6.33c-0.81-1.83-2.41-3.31-4.8-4.43
		c-1.62-0.84-3.89-1.67-6.81-2.48c-2.92-0.81-5.33-1.28-7.23-1.42v-7.49h63.21v7.49c-1.97,0.07-4.52,0.42-7.65,1.06
		c-3.13,0.63-5.4,1.2-6.81,1.69c-2.39,0.84-4.03,2.29-4.91,4.33c-0.88,2.04-1.32,4.22-1.32,6.54v100.57c0,4.64,0.23,8.25,0.69,10.82
		c0.46,2.57,1.53,4.56,3.22,5.96c1.62,1.27,4.03,2.09,7.23,2.48c3.2,0.39,7.69,0.58,13.46,0.58c2.6,0,5.31-0.07,8.13-0.21
		c2.81-0.14,5.49-0.42,8.02-0.84c2.46-0.42,4.73-1,6.81-1.74c2.08-0.74,3.61-1.67,4.59-2.8c2.88-3.24,6.24-8.14,10.08-14.72
		c3.83-6.58,6.49-11.91,7.97-15.99H1523.02z"/>
	<path class="st2" d="M1598.69,1002.82h-67.43v-7.49c1.9-0.14,4.64-0.35,8.23-0.63c3.59-0.28,6.12-0.7,7.6-1.27
		c2.32-0.91,4.01-2.16,5.07-3.75c1.05-1.58,1.58-3.78,1.58-6.6V874.6c0-2.46-0.39-4.52-1.16-6.17c-0.78-1.65-2.6-3.04-5.49-4.17
		c-2.11-0.84-4.77-1.64-7.97-2.38c-3.2-0.74-5.82-1.18-7.86-1.32v-7.49h67.43v7.49c-2.18,0.07-4.79,0.33-7.81,0.79
		c-3.03,0.46-5.66,1.04-7.92,1.74c-2.67,0.84-4.47,2.22-5.38,4.12c-0.92,1.9-1.37,4.01-1.37,6.33v108.38c0,2.32,0.51,4.38,1.53,6.17
		c1.02,1.79,2.76,3.22,5.22,4.27c1.48,0.56,3.89,1.18,7.23,1.85c3.34,0.67,6.17,1.04,8.5,1.11V1002.82z"/>
	<path class="st2" d="M1771.13,860.56c-1.97,0.07-5,0.63-9.08,1.69c-4.08,1.06-7,2.15-8.76,3.27c-2.53,1.76-4.24,5.14-5.12,10.13
		c-0.88,5-1.32,11.33-1.32,19v109.65h-9.18l-90.76-122.52v77.25c0,8.65,0.54,15.3,1.64,19.95c1.09,4.64,2.76,7.95,5.01,9.92
		c1.62,1.55,4.96,2.99,10.03,4.33c5.07,1.34,8.41,2.04,10.03,2.11v7.49h-61.42v-7.49c1.9-0.14,5.1-0.83,9.6-2.06
		c4.5-1.23,7.32-2.34,8.44-3.32c2.46-1.97,4.15-4.98,5.07-9.02c0.91-4.04,1.37-10.96,1.37-20.74v-73.77c0-3.24-0.56-6.47-1.69-9.71
		c-1.13-3.24-2.64-5.73-4.54-7.49c-2.53-2.32-5.96-4.31-10.29-5.96c-4.33-1.65-7.83-2.55-10.5-2.69v-7.49h42.78l84.17,114.16v-71.22
		c0-8.72-0.56-15.42-1.69-20.1c-1.13-4.68-2.74-7.79-4.85-9.34c-1.97-1.33-5.19-2.64-9.66-3.9c-4.47-1.27-7.86-1.97-10.18-2.11
		v-7.49h60.89V860.56z"/>
	<path class="st2" d="M1909.16,958.71l-2.85,44.11H1782v-7.49c2.11-0.14,4.92-0.44,8.44-0.9c3.52-0.46,5.8-0.93,6.86-1.42
		c2.25-1.06,3.82-2.43,4.7-4.12c0.88-1.69,1.32-3.83,1.32-6.44V874.81c0-2.32-0.39-4.38-1.16-6.17c-0.78-1.79-2.39-3.25-4.85-4.38
		c-1.9-0.91-4.45-1.72-7.65-2.43c-3.2-0.7-5.75-1.12-7.65-1.27v-7.49h115.87v36.09h-7.91c-1.41-5.35-4.45-11.03-9.13-17.04
		c-4.68-6.01-9.13-9.3-13.35-9.87c-2.18-0.28-4.79-0.49-7.81-0.63c-3.03-0.14-6.47-0.21-10.34-0.21h-23.53v59.52h16.88
		c5.42,0,9.37-0.51,11.87-1.53c2.5-1.02,4.7-2.73,6.6-5.12c1.55-2.04,2.87-4.77,3.96-8.18c1.09-3.41,1.81-6.63,2.16-9.66h7.92v58.67
		h-7.92c-0.28-3.38-1.04-6.95-2.27-10.71c-1.23-3.76-2.52-6.49-3.85-8.18c-2.18-2.74-4.66-4.54-7.44-5.38
		c-2.78-0.84-6.46-1.27-11.03-1.27h-16.88v44.88c0,4.5,0.32,8.04,0.95,10.64c0.63,2.6,1.86,4.57,3.69,5.9
		c1.83,1.34,4.33,2.2,7.49,2.58s7.67,0.58,13.51,0.58c2.32,0,5.38,0,9.18,0s7-0.14,9.6-0.42c2.67-0.28,5.43-0.79,8.28-1.53
		c2.85-0.74,4.87-1.74,6.07-3.01c3.24-3.38,6.63-8.5,10.18-15.35c3.55-6.86,5.82-11.91,6.81-15.14H1909.16z"/>
</g>
</svg>
